<svg width="1900" height="1298" viewBox="0 0 1900 1298" fill="none" xmlns="http://www.w3.org/2000/svg">
<path d="M1668.31 353.58C1633.79 413.667 1612.22 505.687 1625.01 570.996C1630.65 599.819 1650.67 631.172 1676.61 636.096C1711.55 642.73 1748.57 632.763 1774.33 608.685C1809.7 575.633 1827.85 523.099 1834.2 477.172C1840.54 431.245 1840.86 356.92 1800.87 317.424C1754.1 271.232 1699.2 299.814 1668.31 353.58Z" fill="#DE3E3E" stroke="#F3E6D6" stroke-width="20"/>
<path d="M1724.86 247.355C1695.44 218.303 1698.05 166.949 1722.01 126.564C1737.75 100.036 1766.16 85.113 1794.16 87.8432C1825.71 90.9206 1855.81 104.122 1868.45 149.891C1882.68 201.459 1855.21 233.088 1830.28 252.05C1805.36 271.011 1759.05 281.113 1724.86 247.355Z" fill="#DE3E3E" stroke="#F3E6D6" stroke-width="20"/>
<path fill-rule="evenodd" clip-rule="evenodd" d="M1298.81 403.491C1302.76 263.912 1331.27 140.181 1379.7 81.9071C1400.07 57.4006 1442.36 32.8929 1518.65 56.8894C1566.06 72.9121 1633.5 121.956 1663.16 209.153C1696.75 307.895 1672.2 390.779 1634.68 460.655C1605.09 515.772 1541.22 572.779 1471.57 581.684C1415.41 588.863 1357.91 571.487 1329.82 537.863C1312.39 516.998 1296.6 481.45 1298.81 403.491ZM1449.8 279.07C1452.33 250.852 1473.33 227.191 1501.71 245.712C1545.16 274.067 1506.48 343.702 1472.72 340.674C1447.62 338.422 1447.27 307.287 1449.8 279.07Z" fill="#DE3E3E" stroke="#F3E6D6" stroke-width="20"/>
<path d="M893.584 333.94C893.585 432.593 917.68 503.317 946.541 543.034C966.715 573.748 1011.38 567.192 1027.03 551.055C1046.55 530.932 1052.97 497.306 1046.55 446.469C1039.4 389.807 1022.19 359.544 1046.55 344.188C1070.91 328.831 1091.83 389.464 1102.68 440.036C1113.54 490.608 1113.88 524.048 1136.38 551.055C1158.89 578.062 1202.31 583.093 1240.97 556.88C1279.63 530.668 1298.16 493.864 1319.87 424.228C1341.58 354.592 1349.41 279.81 1343.1 214.977C1335.76 139.593 1319.87 101.9 1301.6 73.6654C1280.65 41.2847 1245.4 28.5753 1210.18 41.2847C1174.97 53.994 1169.55 97.8148 1173.72 124.767C1178.75 157.333 1193.77 191.412 1196.68 214.977C1199.59 238.542 1199.67 259.538 1184.31 264.833C1168.95 270.129 1154.95 255.036 1143.19 228.294C1124.92 186.724 1120.76 160.247 1109.91 96.966C1099.05 33.6847 1065.02 20.8449 1018.33 30.227C971.642 39.6092 939.634 76.6573 918.888 137.799C901.462 189.155 893.583 238.885 893.584 333.94Z" fill="#DE3E3E" stroke="#F3E6D6" stroke-width="20"/>
<path fill-rule="evenodd" clip-rule="evenodd" d="M586.668 531.086C562.19 476.374 551.928 400.273 554.452 314.77C556.975 229.266 570.325 81.6516 650.662 40.5072C731 -0.637139 791.766 46.9104 833.986 112.9C836.917 117.482 839.955 122.163 843.067 126.959C884.772 191.22 925.105 276.964 925.311 421.49C925.526 573.355 844.243 572.766 841.992 572.031C841.778 571.961 841.193 571.965 840.304 571.972C831.858 572.037 795.927 572.314 788.717 510.9C787.441 500.026 786.474 490.632 785.64 482.525C781.265 440.021 772.038 424.713 756.846 425.163C741.654 425.613 717.716 437.836 718.259 494.356C718.801 550.758 702.888 579.362 666.318 584.809C634.274 589.581 607.89 578.52 586.668 531.086ZM700.708 285.489C692.445 262.359 697.591 238.26 722.662 236.978C750.026 235.579 759.725 276.699 743.248 295.482C726.772 314.266 708.972 308.618 700.708 285.489Z" fill="#DE3E3E" stroke="#F3E6D6" stroke-width="20"/>
<path d="M230.641 108.357C167.37 158.76 124.683 232.241 129.805 298.463C133.653 348.228 146.816 381.067 193.024 401.66C229.99 418.134 287.323 398.527 311.369 386.664C342.798 370.689 377.048 374.018 389.23 394.186C401.71 414.846 389.985 452.021 338.062 457.099C286.138 462.177 223.178 444.739 190.319 442.235C157.461 439.73 89.7338 447.37 76.707 508.118C60.5213 583.598 101.737 618.632 156.898 648.774C199.046 671.805 267.708 680.57 341.114 668.254C414.52 655.937 491.457 616.926 535.457 574.881C570.35 541.539 615.897 488.459 599.254 410.607C589.424 364.628 546.463 322.073 472.235 317.126C413.259 313.195 338.412 327.476 294.821 344.391C263.463 356.559 256.177 325.208 266.7 306.997C285.824 273.902 329.852 259.707 368.278 260.633C401.022 261.423 444.741 274.106 488.827 270.696C532.913 267.286 559.568 245.839 559.574 192.86C559.583 117.439 496.025 63.8944 437.094 51.6216C373.413 38.3596 293.913 57.9544 230.641 108.357Z" fill="#DE3E3E" stroke="#F3E6D6" stroke-width="20"/>
<path fill-rule="evenodd" clip-rule="evenodd" d="M1127.72 1183.05C1102.22 1109.44 1105.7 1005.71 1112.76 952.585C1120.56 893.94 1132.57 815.345 1186.73 752.897C1240.89 690.45 1298.96 688.544 1355.96 703.304C1412.96 718.065 1456.93 777.621 1475.28 827.527C1492.36 873.954 1493.76 913.363 1480.29 959.409C1468.24 1000.6 1446.56 1033.18 1397.98 1042.75C1372.81 1047.71 1353.49 1043.51 1335.69 1039.64C1328.52 1038.08 1321.59 1036.57 1314.62 1035.74C1290.37 1032.84 1282.91 1047.44 1283.8 1066.09C1285.01 1091.43 1279.89 1150.48 1268.14 1185.4C1258.51 1214 1247.56 1231.93 1223.65 1243.67C1195.62 1257.44 1148.7 1243.6 1127.72 1183.05ZM1284.02 872.501C1283.75 844.109 1300 823.027 1324.36 826.757C1348.72 830.487 1363.78 871.783 1343.57 889.113C1318.23 910.831 1284.3 900.894 1284.02 872.501Z" fill="#DE3E3E" stroke="#F3E6D6" stroke-width="20"/>
<path fill-rule="evenodd" clip-rule="evenodd" d="M858.258 1202.31C818.986 1135.04 802.306 1032.59 798.948 979.109C795.242 920.064 791.799 840.631 832.84 768.877C873.88 697.123 930.482 684.007 989.262 687.449C1048.04 690.891 1102.71 740.803 1130.39 786.211C1156.13 828.452 1165.13 866.844 1160.84 914.627C1156.99 957.374 1142.04 993.53 1096.23 1012.33C1072.49 1022.07 1052.73 1021.69 1034.51 1021.34C1027.17 1021.2 1020.09 1021.06 1013.09 1021.6C988.732 1023.45 984.249 1039.21 988.732 1057.34C994.822 1081.96 1001.24 1140.89 996.471 1177.43C992.568 1207.35 985.29 1227.06 964.108 1243.21C939.279 1262.14 890.56 1257.65 858.258 1202.31ZM951.459 867.374C945.689 839.572 957.549 815.743 982.173 814.683C1006.8 813.624 1029.57 851.222 1013.09 872.14C992.444 898.352 957.229 895.175 951.459 867.374Z" fill="#DE3E3E" stroke="#F3E6D6" stroke-width="20"/>
<path d="M340 1104.79C431.664 1181.54 740.677 1228.42 890.846 1094.12V1166.49C775.298 1266.1 509.451 1276.62 340 1181.54V1104.79Z" fill="#DE3E3E"/>
<path d="M340 1104.79C431.664 1181.54 740.677 1228.42 890.846 1094.12C846.041 980.241 783.069 827.085 728 712.245C729.2 710.441 729.838 707.115 730.007 705.677C730.296 701.257 730.7 690.909 730.007 682.273C728.435 662.682 718.418 654.077 717.551 653.144C733.603 647.417 751 630.5 758.514 620.567C779.33 585.813 781.403 468.544 709.281 435.812C637.159 403.08 592.981 446.573 579.907 467.362C577.495 465.969 574.893 464.641 572.11 463.436C533.19 446.577 499.361 453.966 477.942 463.436C447.971 476.687 430.52 503.51 423.707 527.638L423.217 529.437C389.495 524.84 364.219 550.257 358.999 560.741C328.343 610.452 358.999 660.346 377.909 677.742C397.859 696.095 431.714 706.075 454.706 705.893H459.771C455.773 711.224 458.107 711.527 465.546 727.201C475.192 747.525 473.743 747.777 482.357 752.856C482.695 753.071 483.532 753.5 484.185 753.5C436.263 862.24 382.711 995.256 340 1104.79Z" fill="#DE3E3E"/>
<path d="M890.846 1094.12C890.846 1111.69 890.846 1150.78 890.846 1166.49M890.846 1094.12C740.677 1228.42 431.664 1181.54 340 1104.79M890.846 1094.12V1166.49M890.846 1094.12C846.041 980.241 783.069 827.085 728 712.245C729.2 710.441 729.838 707.115 730.007 705.677C730.296 701.257 730.7 690.909 730.007 682.273C728.435 662.682 718.418 654.077 717.551 653.144C733.603 647.417 751 630.5 758.514 620.567C779.33 585.813 781.403 468.544 709.281 435.812C637.159 403.08 592.981 446.573 579.907 467.362M340 1104.79C340 1123.82 340 1165.82 340 1181.54M340 1104.79V1181.54M340 1104.79C382.711 995.256 436.263 862.24 484.185 753.5C483.532 753.5 482.695 753.071 482.357 752.856C473.743 747.777 475.192 747.525 465.546 727.201C458.107 711.527 455.773 711.224 459.771 705.893M340 1181.54C509.451 1276.62 775.298 1266.1 890.846 1166.49M459.771 705.893C458.308 705.893 456.332 706.013 454.706 705.893M459.771 705.893H454.706M423.217 529.437C389.495 524.84 364.219 550.257 358.999 560.741C328.343 610.452 358.999 660.346 377.909 677.742C397.859 696.095 431.714 706.075 454.706 705.893M423.217 529.437C420.114 541.281 419.593 552.369 421.427 560.741M423.217 529.437C423.374 528.84 423.537 528.24 423.707 527.638M423.217 529.437L423.707 527.638M579.907 467.362C577.495 465.969 574.893 464.641 572.11 463.436C533.19 446.577 499.361 453.966 477.942 463.436C447.971 476.687 430.52 503.51 423.707 527.638M579.907 467.362C593.265 475.077 600.784 484.794 600.784 486.826" stroke="#F3E6D6" stroke-width="20" stroke-linecap="round" stroke-linejoin="round"/>
</svg>
